<?xml version="1.0" standalone="no"?>
<!DOCTYPE svg PUBLIC "-//W3C//DTD SVG 20010904//EN"
 "http://www.w3.org/TR/2001/REC-SVG-20010904/DTD/svg10.dtd">
<svg version="1.0" xmlns="http://www.w3.org/2000/svg"
 width="640.000000pt" height="640.000000pt" viewBox="0 0 640.000000 640.000000"
 preserveAspectRatio="xMidYMid meet">
<metadata>
Created by potrace 1.14, written by Peter Selinger 2001-2017
</metadata>
<g transform="translate(0.000000,640.000000) scale(0.100000,-0.100000)"
fill="#000000" stroke="none">
<path d="M3078 5435 c-2 -2 -25 -6 -53 -10 -60 -8 -175 -38 -230 -60 -48 -20
-148 -68 -155 -75 -7 -7 -43 -29 -60 -37 -65 -29 -242 -208 -313 -316 -96
-148 -151 -289 -175 -447 -16 -104 -6 -338 17 -418 5 -18 10 -36 11 -40 0 -4
5 -25 11 -47 6 -22 10 -41 10 -43 -1 -1 5 -15 13 -30 8 -15 25 -49 37 -77 67
-150 235 -345 374 -436 106 -69 245 -139 278 -139 7 0 17 -3 21 -7 3 -4 12 -8
19 -9 7 -2 45 -10 86 -19 41 -9 115 -18 165 -20 50 -3 93 -5 96 -6 3 -1 10 0
15 1 6 1 30 4 55 5 25 2 60 6 78 9 17 3 46 8 63 11 18 3 40 10 50 16 11 5 19
7 19 4 0 -11 231 85 250 105 9 9 44 30 68 40 12 5 22 14 22 20 0 5 6 10 14 10
8 0 59 44 113 98 99 97 164 185 222 297 34 68 83 195 74 195 -3 0 -1 6 4 13 6
6 14 32 18 57 4 25 10 61 13 80 8 45 8 273 0 325 -37 238 -146 453 -318 625
-84 85 -209 175 -305 219 -27 13 -58 28 -69 33 -10 5 -26 11 -35 13 -9 2 -36
10 -61 18 -25 8 -63 18 -85 23 -22 4 -47 9 -55 11 -18 5 -297 12 -302 8z"/>
<path d="M845 4789 c-16 -5 -43 -11 -60 -14 -16 -3 -68 -24 -114 -46 -163 -80
-300 -256 -338 -433 -9 -41 -8 -233 2 -271 4 -16 8 -37 10 -45 2 -8 4 -16 5
-17 2 -2 3 -6 5 -10 1 -5 7 -21 13 -36 7 -16 12 -30 12 -32 0 -3 16 -30 36
-61 35 -55 122 -148 175 -187 48 -37 157 -85 234 -104 50 -12 220 -10 278 3
179 42 347 174 426 335 22 46 43 98 46 114 2 17 9 45 14 63 17 57 6 230 -19
302 -57 169 -171 303 -321 379 -46 24 -86 43 -89 42 -3 0 -23 5 -45 11 -51 14
-230 18 -270 7z"/>
<path d="M5325 4789 c-16 -5 -43 -11 -60 -14 -16 -3 -67 -24 -113 -46 -62 -30
-102 -59 -157 -113 -61 -61 -137 -168 -133 -186 1 -3 -5 -16 -12 -30 -8 -14
-15 -29 -17 -35 -25 -95 -30 -135 -28 -222 2 -54 6 -105 8 -113 26 -99 62
-184 104 -240 51 -69 157 -159 229 -196 42 -21 81 -40 86 -40 4 -1 9 -2 11 -4
1 -1 9 -3 17 -5 8 -2 29 -6 45 -10 38 -10 230 -11 271 -2 232 50 441 259 491
491 9 41 8 233 -2 271 -4 17 -8 37 -10 45 -2 8 -4 16 -5 18 -2 1 -3 5 -5 10
-1 4 -7 20 -13 35 -7 16 -12 30 -12 32 0 3 -16 30 -36 61 -35 54 -122 147
-175 187 -23 18 -144 81 -164 85 -5 2 -28 8 -50 14 -51 14 -230 18 -270 7z"/>
<path d="M639 3205 c-3 -2 -32 -7 -64 -10 -66 -6 -225 -53 -225 -66 0 -5 -6
-9 -12 -9 -24 -1 -103 -61 -166 -127 -64 -68 -136 -196 -147 -260 -3 -18 -9
-42 -14 -55 -15 -41 -13 -466 3 -525 32 -117 136 -210 257 -228 24 -4 102 -6
174 -6 72 1 165 1 208 1 97 -1 101 -1 165 0 29 0 57 -2 62 -5 6 -3 10 -3 10 2
0 4 20 7 45 5 33 -3 45 0 46 9 4 87 63 284 121 408 37 80 98 188 125 221 6 8
29 39 51 68 76 103 277 292 311 292 6 0 11 5 11 10 0 6 8 14 18 18 9 4 38 20
65 36 l47 28 -41 38 c-23 21 -71 54 -108 73 -57 30 -91 43 -171 64 -26 7 -299
17 -326 12 -5 -1 -13 -1 -19 0 -5 1 -57 2 -115 1 -58 -1 -118 0 -135 0 -16 1
-37 2 -45 1 -49 -2 -113 -1 -119 4 -5 2 -10 3 -12 0z"/>
<path d="M5179 3206 c-2 -2 -44 -6 -94 -9 -98 -7 -188 -31 -268 -74 -29 -15
-54 -30 -57 -33 -3 -3 -24 -21 -48 -39 l-43 -33 35 -24 c19 -13 39 -24 45 -24
5 0 11 -3 13 -7 2 -5 30 -26 62 -48 75 -51 248 -219 315 -307 28 -37 51 -70
51 -72 0 -3 14 -25 31 -50 73 -109 168 -358 185 -486 10 -78 15 -82 124 -80
52 1 102 1 110 1 8 0 94 -1 190 -1 266 -1 328 4 381 29 52 25 129 88 129 107
0 7 4 14 10 16 5 2 19 30 31 62 19 56 20 76 16 300 -2 133 -6 248 -9 256 -3 8
-10 35 -17 60 -42 149 -174 305 -322 379 -46 24 -86 43 -89 42 -3 0 -23 5 -45
11 -32 9 -118 15 -260 20 -15 0 -126 -2 -165 -3 -19 -1 -42 -1 -50 0 -8 1 -37
0 -65 0 -27 -1 -57 -1 -65 0 -32 2 -95 0 -99 -4 -2 -3 -9 0 -16 5 -7 5 -14 8
-16 6z"/>
<path d="M2488 2884 c-2 -2 -49 -6 -104 -8 -126 -6 -169 -13 -272 -42 -131
-38 -269 -107 -377 -188 -88 -66 -275 -273 -275 -305 0 -5 -3 -11 -7 -13 -21
-9 -141 -284 -143 -326 0 -8 -10 -66 -17 -97 -6 -31 -14 -212 -12 -285 0 -36
1 -72 0 -80 -4 -57 3 -166 14 -220 10 -50 75 -166 117 -209 85 -88 189 -138
302 -147 67 -5 391 -6 554 -2 56 2 102 1 102 -2 0 -3 23 -5 50 -5 28 0 50 4
50 8 0 5 4 6 9 2 5 -3 31 -5 58 -5 26 0 57 0 68 0 11 0 38 0 60 1 22 0 47 0
55 0 8 -1 29 -1 45 0 17 1 37 1 45 0 8 0 85 0 170 0 160 -1 309 -2 319 -3 3 0
8 0 11 1 13 5 130 5 130 1 0 -6 109 -4 116 2 2 3 24 2 49 -2 24 -4 50 -3 57 1
6 4 16 5 20 3 8 -5 326 -6 506 -2 56 2 102 1 102 -2 0 -3 23 -5 50 -5 28 0 50
3 50 7 0 4 6 5 13 2 22 -8 267 -10 267 -2 0 4 6 5 13 3 6 -3 37 2 67 10 30 8
63 17 72 19 29 8 121 71 161 112 44 44 104 142 111 179 3 14 8 30 12 36 4 7 9
50 10 97 2 46 4 86 6 87 2 2 1 40 -2 85 -3 45 -2 84 3 87 4 2 5 8 3 12 -3 4
-7 50 -10 102 -3 52 -10 119 -16 149 -6 30 -13 65 -16 77 -9 44 -57 169 -87
228 -114 219 -293 398 -512 512 -66 34 -205 86 -205 77 0 -4 -6 -2 -12 4 -16
12 -136 33 -226 38 -134 8 -162 6 -184 -8 -20 -12 -112 -51 -128 -53 -3 0 -30
-9 -60 -20 -65 -22 -50 -19 -180 -46 -166 -34 -453 -32 -605 5 -11 2 -41 9
-67 15 -26 6 -70 20 -97 31 -28 11 -51 17 -51 14 0 -4 -6 -2 -12 4 -7 6 -17
11 -23 12 -13 3 -38 13 -97 38 -25 11 -48 19 -50 16z"/>
</g>
</svg>
